<?xml version="1.0" encoding="iso-8859-1"?>
<!-- Generator: Adobe Illustrator 17.1.0, SVG Export Plug-In . SVG Version: 6.00 Build 0)  -->
<!DOCTYPE svg PUBLIC "-//W3C//DTD SVG 1.1//EN" "http://www.w3.org/Graphics/SVG/1.1/DTD/svg11.dtd">
<svg version="1.1" id="Capa_1" 
	xmlns="http://www.w3.org/2000/svg" 
	xmlns:xlink="http://www.w3.org/1999/xlink" x="0px" y="0px" viewBox="0 0 446.834 446.834" style="enable-background:new 0 0 446.834 446.834;" xml:space="preserve">
	<path d="M192.909,242.355c-4.583-3.082-5.801-9.295-2.719-13.879l16.246-24.162c-10.55-3.322-21.882-4.525-32.593-3.861
	c-6.727,0.418-13.907,1.68-20.938,3.928l16.198,24.092c3.082,4.583,1.864,10.792-2.72,13.873c-4.583,3.08-10.797,1.855-13.878-2.729
	l-17.894-26.635c-11.653,7.709-20.918,19.223-23.936,35.516l-21.38,115.338h69.732c5.523,0,10,4.478,10,10s-4.477,10-10,10H77.273
	c-2.971,0-5.788-1.246-7.688-3.531c-1.9-2.283-2.686-5.22-2.145-8.141l23.57-127.233c6.758-36.487,38.786-61.78,81.594-64.438
	c19.878-1.233,39.775,2.885,56.014,11.598c18.42,9.884,31.287,24.976,37.208,43.643c1.67,5.265-1.244,10.886-6.508,12.556
	c-5.265,1.667-10.886-1.244-12.556-6.509c-4.01-12.642-11.997-22.139-22.029-28.834l-17.945,26.69
	C203.705,244.219,197.493,245.438,192.909,242.355z M379.561,279.521v38.496c0,0.102,0,0.204,0,0.305v84.418
	c0,5.009-3.561,9.244-8.525,9.911c0,0-81.519,10.967-81.579,10.974c-0.006,0.002-17.411-2.022-17.411-2.022l-0.001,15.23
	c0,5.522-4.481,10-10.004,10.001c-5.523,0-10.011-4.477-10.012-9.999l-0.023-17.919l-46.693-6.265
	c-4.964-0.667-8.753-4.902-8.753-9.911V279.521c0-2.884,1.321-5.628,3.492-7.527s5.13-2.768,7.99-2.384l80.211,10.774l80.192-10.774
	c2.854-0.387,5.671,0.484,7.842,2.384S379.561,276.638,379.561,279.521z M278.561,299.222l-62-8.268v103.039l46.645,6.244
	c0.114,0.013,0.379,0.028,0.492,0.045l14.864,1.979V299.222z M359.561,290.954l-61,8.268v103.039l61-8.268V329.59l-30.048,4.051
	c-5.468,0.731-10.398-3.105-11.134-8.58c-0.735-5.474,3.034-10.507,8.508-11.242l32.674-4.408V290.954z M106.955,67.79
	c1.682-44.886,38.679-66.602,72.342-67.784c0.234-0.008,0.468-0.008,0.702,0c3.789,0.134,7.618,0.526,11.436,1.184
	c0.49,0.052,0.967,0.139,1.431,0.259c29.599,5.609,58.006,27.139,59.471,66.343c1.388,37.099-12.438,67.064-37.936,82.213
	c-10.718,6.367-22.736,9.552-34.753,9.552c-12.018,0-24.034-3.184-34.752-9.551C119.397,134.857,105.569,104.891,106.955,67.79z
	 M185.861,57.735c12.572,12.144,30.04,16.691,46.531,12.068c-0.011-0.422-0.024-0.842-0.041-1.266
	c-0.893-23.896-15.532-38.519-33.435-44.869C196.668,36.478,192.234,48.004,185.861,57.735z M126.903,69.748
	c10.862,0.211,21.626-3.305,30.416-10.088c2.481-1.915,5.112-4.317,7.68-7.31c0.219-0.291,0.455-0.572,0.709-0.843
	c5.786-7.025,11.142-17.127,13.568-31.484c-25.309,1.159-51.136,16.531-52.333,48.515C126.927,68.942,126.913,69.347,126.903,69.748
	z M128.254,89.755c3.356,19.444,12.673,34.63,26.856,43.056c15.136,8.99,33.94,8.989,49.076-0.001
	c13.968-8.299,23.214-23.149,26.696-42.172c-20.925,3.617-42.257-2.824-58.146-17.769c-1.04,0.905-2.105,1.78-3.197,2.623
	C157.59,84.716,143.047,89.657,128.254,89.755z"/>
	<g>
	</g>
	<g>
	</g>
	<g>
	</g>
	<g>
	</g>
	<g>
	</g>
	<g>
	</g>
	<g>
	</g>
	<g>
	</g>
	<g>
	</g>
	<g>
	</g>
	<g>
	</g>
	<g>
	</g>
	<g>
	</g>
	<g>
	</g>
	<g>
	</g>
</svg>
